<svg id="Layer_1" data-name="Layer 1" xmlns="http://www.w3.org/2000/svg" viewBox="0 0 1793.7 444.68"><defs><style>.cls-1{fill:#fff;}</style></defs><title>logo-light</title><path class="cls-1" d="M467.37,3.27V438.5H393.71v-237L264.49,395.65h-61.6L73.65,201.47v237H0V3.27H73.65V68.89l160,240.39,160-240.39V3.27Z"/><path class="cls-1" d="M823.57,3V76.65H508.19V3ZM786.74,246.05v14.73H508.19V187.13H786.74ZM508.19,364.57H823.57v73.66H508.19Z"/><path class="cls-1" d="M912.91,321.49A57.07,57.07,0,1,0,970,378.55a57.13,57.13,0,0,0-57.07-57.07Zm29.6,58.64-41.84,28.53a1.9,1.9,0,0,1-3-1.57V350a1.9,1.9,0,0,1,3-1.57L942.52,377a1.9,1.9,0,0,1,0,3.14Zm0,0"/><path class="cls-1" d="M1106.26,444.68a115.18,115.18,0,0,1-48.67-10.22,113,113,0,0,1-38.46-28.84,134.54,134.54,0,0,1-25.24-44.17q-9-25.53-9-55.59a184.81,184.81,0,0,1,12-66.4,169.57,169.57,0,0,1,86.83-94q30.34-14.42,67.6-14.42,29.44,0,53.78,12.92t34.55,32.15h4.81l1.8-42.06,22.83-129.2h78.12l-75.72,430.25H1198.2l6-35.45h-4.81q-12,17.44-34.55,31.25T1106.26,444.68Zm47.47-241a84.06,84.06,0,0,0-36.35,7.81,90.33,90.33,0,0,0-28.54,21,95.18,95.18,0,0,0-18.63,30.65,102.38,102.38,0,0,0-6.61,36.66q0,33.05,19.83,52.58T1135.71,372a82,82,0,0,0,33.65-7.21,91.41,91.41,0,0,0,28.54-19.83,96.54,96.54,0,0,0,19.83-30.65,102.17,102.17,0,0,0,7.51-39.66q0-32.45-19.83-51.68T1153.73,203.71Z"/><path class="cls-1" d="M1342.41,435.06l51.68-294.45h78.72l-51.68,294.45Zm107-334.11a48.64,48.64,0,0,1-35.75-14.72,48.63,48.63,0,0,1-14.72-35.75,48.67,48.67,0,0,1,14.72-35.75,50.78,50.78,0,0,1,71.51,0,48.71,48.71,0,0,1,14.72,35.75,48.67,48.67,0,0,1-14.72,35.75A48.67,48.67,0,0,1,1449.38,101Z"/><path class="cls-1" d="M1669.31,131q60.69,0,92.54,28.85t31.85,75.71a123.71,123.71,0,0,1-.9,14.72q-.9,7.52-2.1,15.92l-30,168.86h-77.52l5.41-31.25h-4.81A116.88,116.88,0,0,1,1649.18,433q-20.73,11.72-50.18,11.72a114.26,114.26,0,0,1-40.56-6.91,91.11,91.11,0,0,1-31.25-19.23,86.43,86.43,0,0,1-20.13-29.44,94.25,94.25,0,0,1-7.21-37q0-25.24,9.91-45.07a97.6,97.6,0,0,1,28.24-34q18.32-14.11,43.87-21.63t56.19-7.51a195.22,195.22,0,0,1,40.56,3.91,276.9,276.9,0,0,1,35.15,9.91l2.4-9a51.94,51.94,0,0,0,1.2-9.61q0-19.22-15.92-31.85T1659.7,194.7q-22.84,0-40.26,8.71a99.32,99.32,0,0,0-31.25,24.94l-52.88-38.46q24-30.65,58.89-44.77T1669.31,131Zm-44.47,252.38a72.54,72.54,0,0,0,28.54-5.71,86.76,86.76,0,0,0,24-15,84.06,84.06,0,0,0,26.74-47.17,212.18,212.18,0,0,0-25.54-9.31q-16.53-5.1-38.16-5.11-25.24,0-43.27,11.12t-18,34q0,18.63,13.52,27.94T1624.84,383.38Z"/></svg>