<svg id="Layer_1" data-name="Layer 1" xmlns="http://www.w3.org/2000/svg" viewBox="0 0 969.98 435.51"><defs><style>.cls-1{fill:#26bc82;}.cls-2{fill:#cec591;}</style></defs><title>logo_small</title><path class="cls-1" d="M467.37.28V435.51H393.71v-237L264.49,392.66h-61.6L73.65,198.47v237H0V.28H73.65V65.9l160,240.39,160-240.39V.28Z"/><path class="cls-1" d="M823.57,0V73.66H508.19V0ZM786.74,243.06v14.73H508.19V184.14H786.74ZM508.19,361.58H823.57v73.66H508.19Z"/><path class="cls-2" d="M912.91,318.5A57.07,57.07,0,1,0,970,375.56a57.13,57.13,0,0,0-57.07-57.07Zm29.6,58.64-41.84,28.53a1.9,1.9,0,0,1-3-1.57V347a1.9,1.9,0,0,1,3-1.57L942.52,374a1.9,1.9,0,0,1,0,3.14Zm0,0"/></svg>