<?xml version="1.0" standalone="no"?>
<!DOCTYPE svg PUBLIC "-//W3C//DTD SVG 20010904//EN"
 "http://www.w3.org/TR/2001/REC-SVG-20010904/DTD/svg10.dtd">
<svg version="1.0" xmlns="http://www.w3.org/2000/svg"
 width="477.000000pt" height="477.000000pt" viewBox="0 0 477.000000 477.000000"
 preserveAspectRatio="xMidYMid meet">
<metadata>
Created by potrace 1.11, written by Peter Selinger 2001-2013
</metadata>
<g transform="translate(0.000000,477.000000) scale(0.100000,-0.100000)"
fill="#000000" stroke="none">
<path d="M2337 4764 c-1 -1 -51 -4 -112 -7 -93 -6 -247 -25 -320 -41 -134 -29
-292 -78 -438 -135 -110 -43 -330 -165 -452 -250 -172 -121 -402 -341 -517
-496 -37 -49 -71 -94 -75 -100 -25 -32 -83 -126 -83 -135 0 -5 -3 -10 -7 -10
-5 0 -13 -10 -19 -23 -6 -12 -34 -68 -63 -125 -104 -206 -190 -470 -217 -667
-3 -22 -7 -46 -10 -54 -17 -53 -25 -466 -11 -586 11 -86 17 -127 22 -155 3
-14 8 -38 11 -55 30 -171 106 -391 200 -580 95 -191 92 -186 156 -276 16 -21
28 -43 28 -49 0 -5 4 -10 8 -10 4 0 15 -12 24 -27 10 -16 27 -40 40 -55 13
-15 34 -42 48 -60 26 -34 271 -282 306 -308 10 -8 48 -38 84 -65 63 -48 79
-60 200 -138 148 -95 384 -198 585 -256 55 -16 125 -34 155 -40 30 -6 66 -14
80 -16 32 -7 160 -24 231 -30 120 -12 352 -7 482 10 20 3 56 7 80 11 23 3 49
7 57 9 8 2 31 7 50 10 155 26 407 112 570 195 197 99 284 155 493 319 12 9 78
73 148 142 395 395 628 887 686 1449 9 88 9 371 0 450 -16 135 -20 160 -38
250 -24 115 -23 108 -49 195 -29 97 -21 75 -63 185 -43 117 -146 319 -221 435
-111 172 -322 410 -475 536 -351 289 -774 474 -1222 534 -70 9 -345 25 -352
19z m-247 -1273 c118 -80 274 -185 345 -234 72 -49 186 -127 255 -173 69 -47
233 -159 365 -249 132 -90 317 -216 412 -280 184 -124 204 -146 180 -202 -5
-12 -91 -77 -191 -144 -99 -68 -206 -140 -236 -161 -30 -21 -62 -43 -70 -48
-21 -14 -697 -474 -1180 -802 -82 -56 -123 -78 -146 -78 -32 0 -66 27 -71 58
-3 18 -5 1183 -2 1198 1 5 1 14 0 19 -2 13 -2 931 0 942 1 4 1 13 -1 18 -1 6
-1 62 -1 125 1 126 13 158 62 171 32 8 32 8 279 -160z"/>
</g>
</svg>
